<svg xmlns="http://www.w3.org/2000/svg" width="1800" height="1380" viewBox="0 0 1800 1380" role="img" aria-labelledby="title desc">
  <title id="title">QMS Lite GitHub Automation Map</title>
  <desc id="desc">Workflow map of PR gates, signature flow, training flow, record publication, and operational workflows.</desc>
  <defs>
    <style>
      .bg { fill: #f8fafc; }
      .panel { fill: #ffffff; stroke: #cbd5e1; stroke-width: 2; rx: 10; }
      .panel-title { font: 700 18px Arial, Helvetica, sans-serif; fill: #0f172a; }
      .node { fill: #e0f2fe; stroke: #0284c7; stroke-width: 1.5; rx: 8; }
      .node-text { font: 13px Arial, Helvetica, sans-serif; fill: #0f172a; }
      .ext { fill: #dcfce7; stroke: #16a34a; stroke-width: 1.5; rx: 8; }
      .legacy { fill: #f1f5f9; stroke: #64748b; stroke-width: 1.5; rx: 8; }
      .event { fill: #fef3c7; stroke: #d97706; stroke-width: 1.5; rx: 8; }
      .arrow { stroke: #334155; stroke-width: 2; fill: none; marker-end: url(#arrowhead); }
      .dashed { stroke-dasharray: 8 6; }
      .legend { font: 12px Arial, Helvetica, sans-serif; fill: #334155; }
      .small { font: 12px Arial, Helvetica, sans-serif; fill: #475569; }
    </style>
    <marker id="arrowhead" markerWidth="10" markerHeight="7" refX="9" refY="3.5" orient="auto">
      <polygon points="0 0, 10 3.5, 0 7" fill="#334155" />
    </marker>
  </defs>

  <rect class="bg" x="0" y="0" width="1800" height="1380" />
  <text x="40" y="40" class="panel-title">qms-lite Automation Map (GitHub Actions)</text>
  <text x="40" y="65" class="small">Generated overview of active and fallback workflows.</text>

  <!-- Trigger events -->
  <rect class="panel" x="30" y="90" width="1740" height="110" />
  <text x="50" y="120" class="panel-title">Primary Triggers</text>
  <rect class="event" x="50" y="135" width="250" height="42" /><text x="62" y="161" class="node-text">pull_request (open/update)</text>
  <rect class="event" x="320" y="135" width="220" height="42" /><text x="332" y="161" class="node-text">pull_request_review</text>
  <rect class="event" x="560" y="135" width="220" height="42" /><text x="572" y="161" class="node-text">pull_request (closed)</text>
  <rect class="event" x="800" y="135" width="290" height="42" /><text x="812" y="161" class="node-text">push tag (QMS-YYYY-MM-DD-RNN)</text>
  <rect class="event" x="1110" y="135" width="210" height="42" /><text x="1122" y="161" class="node-text">issues / issue_comment</text>
  <rect class="event" x="1340" y="135" width="210" height="42" /><text x="1352" y="161" class="node-text">workflow_dispatch</text>

  <!-- PR controls panel -->
  <rect class="panel" x="30" y="230" width="560" height="500" />
  <text x="50" y="260" class="panel-title">6.1 PR Controls and Approval Gates</text>

  <rect class="node" x="50" y="280" width="250" height="56" />
  <text x="62" y="302" class="node-text">6.1 Auto Assign Signatory Reviewers</text>
  <text x="62" y="320" class="small">6.1_auto_assign_signatory_reviewers.yml</text>

  <rect class="node" x="320" y="280" width="250" height="56" />
  <text x="332" y="302" class="node-text">6.1 Required Reviewer Approval Gate</text>
  <text x="332" y="320" class="small">6.1_required_reviewer_approval_gate.yml</text>

  <rect class="node" x="50" y="350" width="250" height="56" />
  <text x="62" y="372" class="node-text">6.1 Auto Merge After Approvals</text>
  <text x="62" y="390" class="small">6.1_auto_merge_after_signatory_approvals.yml</text>

  <rect class="node" x="320" y="350" width="250" height="56" />
  <text x="332" y="372" class="node-text">6.1 QMS Content Gate</text>
  <text x="332" y="390" class="small">6.1_qms_content_gate.yml</text>

  <rect class="node" x="50" y="420" width="250" height="56" />
  <text x="62" y="442" class="node-text">6.1 Training PR Approval Gate</text>
  <text x="62" y="460" class="small">6.1_training_pr_approval_gate.yml</text>

  <rect class="node" x="320" y="420" width="250" height="56" />
  <text x="332" y="442" class="node-text">6.1 Risk Record Schema Gate</text>
  <text x="332" y="460" class="small">6.1_risk_record_schema_gate.yml</text>

  <path class="arrow" d="M175 177 L175 280" />
  <path class="arrow" d="M430 177 L430 280" />
  <path class="arrow" d="M430 336 L430 350" />

  <!-- Signature / publication panel -->
  <rect class="panel" x="620" y="230" width="560" height="500" />
  <text x="640" y="260" class="panel-title">6.2 Signature and Publication Gates</text>

  <rect class="node" x="640" y="285" width="520" height="64" />
  <text x="652" y="310" class="node-text">6.2 PR Signature Request Gate</text>
  <text x="652" y="330" class="small">6.2_pr_signature_request_gate.yml</text>

  <rect class="ext" x="640" y="365" width="520" height="72" />
  <text x="652" y="390" class="node-text">Signature Service (Cloudflare Worker + GitHub OAuth)</text>
  <text x="652" y="410" class="small">User signs via title page UI; attestation comment posted back to PR</text>

  <rect class="node" x="640" y="455" width="520" height="64" />
  <text x="652" y="480" class="node-text">6.2 Signature Attestation Title Page</text>
  <text x="652" y="500" class="small">6.2_signature_attestation_title_page.yml</text>

  <rect class="node" x="640" y="535" width="250" height="64" />
  <text x="652" y="560" class="node-text">6.2 Publish QMS Records</text>
  <text x="652" y="580" class="small">6.2_publish_qms_records.yml</text>

  <rect class="node" x="910" y="535" width="250" height="64" />
  <text x="922" y="560" class="node-text">6.2 Publish QMS Release</text>
  <text x="922" y="580" class="small">6.2_publish_qms_release.yml</text>

  <path class="arrow" d="M670 177 L670 285" />
  <path class="arrow" d="M900 349 L900 365" />
  <path class="arrow" d="M900 437 L900 455" />
  <path class="arrow" d="M770 519 L770 535" />
  <path class="arrow" d="M1030 519 L1030 535" />
  <path class="arrow" d="M945 177 L945 220 L1035 220 L1035 535" />

  <!-- Training lifecycle panel -->
  <rect class="panel" x="1210" y="230" width="560" height="500" />
  <text x="1230" y="260" class="panel-title">6.3 Training Lifecycle</text>

  <rect class="node" x="1230" y="285" width="520" height="64" />
  <text x="1242" y="310" class="node-text">6.3 Release Training Diff (creates one issue per user)</text>
  <text x="1242" y="330" class="small">6.3_release_training_diff.yml</text>

  <rect class="node" x="1230" y="365" width="520" height="64" />
  <text x="1242" y="390" class="node-text">6.3 Training Issue Signature Flow</text>
  <text x="1242" y="410" class="small">6.3_training_issue_signature_flow.yml</text>

  <rect class="node" x="1230" y="445" width="520" height="64" />
  <text x="1242" y="470" class="node-text">6.3 Training Legacy Cleanup</text>
  <text x="1242" y="490" class="small">6.3_training_issue_legacy_cleanup.yml</text>

  <rect class="node" x="1230" y="525" width="520" height="64" />
  <text x="1242" y="550" class="node-text">6.3 Training Review Sign-Off (review-only onboarding PR closure)</text>
  <text x="1242" y="570" class="small">6.3_training_review_signoff.yml</text>

  <rect class="node" x="1230" y="605" width="520" height="64" />
  <text x="1242" y="630" class="node-text">6.3 Manual Training Onboarding PR Creator</text>
  <text x="1242" y="650" class="small">6.3_manual_training_onboarding_pr.yml</text>

  <path class="arrow" d="M945 177 L945 220 L1490 220 L1490 285" />
  <path class="arrow" d="M1490 349 L1490 365" />
  <path class="arrow dashed" d="M1490 429 L1490 445" />
  <path class="arrow" d="M1490 589 L1490 525" />
  <path class="arrow" d="M1445 177 L1445 215 L1760 215 L1760 637 L1750 637" />

  <!-- Platform / ops panel -->
  <rect class="panel" x="30" y="760" width="860" height="260" />
  <text x="50" y="790" class="panel-title">6.4 Platform and Maintenance</text>

  <rect class="node" x="50" y="815" width="260" height="64" />
  <text x="62" y="840" class="node-text">6.4 Deploy Signature Worker</text>
  <text x="62" y="860" class="small">6.4_deploy_signature_worker.yml</text>

  <rect class="node" x="330" y="815" width="260" height="64" />
  <text x="342" y="840" class="node-text">6.4 Artifact Quota Cleanup</text>
  <text x="342" y="860" class="small">6.4_artifact_quota_cleanup.yml</text>

  <!-- Fallback panel -->
  <rect class="panel" x="920" y="760" width="850" height="260" />
  <text x="940" y="790" class="panel-title">6.2 Fallback / Manual Signature Path</text>

  <rect class="legacy" x="940" y="815" width="810" height="70" />
  <text x="952" y="842" class="node-text">6.2 Manual Signature Attestation Fallback</text>
  <text x="952" y="862" class="small">6.2_signature_git_native_fallback.yml</text>

  <text x="940" y="910" class="small">Used as break-glass/manual fallback when worker flow is unavailable.</text>

  <!-- Legend -->
  <rect class="panel" x="30" y="1050" width="1740" height="300" />
  <text x="50" y="1080" class="panel-title">Legend and Notes</text>
  <rect class="node" x="50" y="1100" width="180" height="40" /><text x="62" y="1126" class="legend">Active workflow</text>
  <rect class="ext" x="250" y="1100" width="220" height="40" /><text x="262" y="1126" class="legend">External service</text>
  <rect class="legacy" x="490" y="1100" width="220" height="40" /><text x="502" y="1126" class="legend">Fallback / manual workflow</text>
  <rect class="event" x="730" y="1100" width="220" height="40" /><text x="742" y="1126" class="legend">Event trigger</text>

  <text x="50" y="1175" class="small">Signature-state board synchronization was removed; PR comments, labels, and immutable release assets remain the controlled evidence surface.</text>
  <text x="50" y="1200" class="small">Manual signature fallback remains available if the primary worker flow is unavailable.</text>
  <text x="50" y="1225" class="small">Training release creation should use QMS-YYYY-MM-DD-RNN tags to avoid duplicate training issues.</text>
</svg>
